<svg xmlns="http://www.w3.org/2000/svg" xmlns:xlink="http://www.w3.org/1999/xlink" width="200" zoomAndPan="magnify" viewBox="0 0 150 86.999996" height="116" preserveAspectRatio="xMidYMid meet" version="1.0"><defs><clipPath id="891909ef01"><path d="M 0 70 L 150 70 L 150 86.726562 L 0 86.726562 Z M 0 70 " clip-rule="nonzero"/></clipPath></defs><path fill="#1581ff" d="M 3.871094 40.613281 L 3.871094 13.074219 C 3.871094 4.367188 8.238281 0.0117188 16.964844 0.0117188 L 34.746094 0.0117188 C 43.472656 0.0117188 47.835938 4.367188 47.835938 13.074219 L 47.835938 40.613281 C 47.835938 49.324219 43.472656 53.675781 34.746094 53.675781 L 16.964844 53.675781 C 8.238281 53.675781 3.871094 49.324219 3.871094 40.613281 Z M 15.054688 41.214844 C 15.054688 42.792969 15.816406 43.554688 17.398438 43.554688 L 34.199219 43.554688 C 35.78125 43.554688 36.546875 42.792969 36.546875 41.214844 L 36.546875 12.476562 C 36.546875 10.898438 35.78125 10.136719 34.199219 10.136719 L 17.398438 10.136719 C 15.816406 10.136719 15.054688 10.898438 15.054688 12.476562 Z M 57.4375 40.613281 L 57.4375 30.328125 L 68.671875 30.328125 L 68.671875 41.214844 C 68.671875 42.792969 69.4375 43.554688 71.019531 43.554688 L 81.601562 43.554688 C 83.183594 43.554688 83.945312 42.792969 83.945312 41.214844 L 83.945312 10.136719 L 69.328125 10.136719 L 69.328125 0.0117188 L 95.183594 0.0117188 L 95.183594 40.5625 C 95.183594 49.269531 90.816406 53.625 82.089844 53.625 L 70.582031 53.625 C 61.855469 53.625 57.492188 49.269531 57.492188 40.5625 Z M 107.453125 53.675781 L 107.453125 0.0664062 L 133.636719 0.0664062 C 142.363281 0.0664062 146.726562 4.421875 146.726562 13.128906 L 146.726562 23.523438 C 146.726562 32.234375 142.363281 36.585938 133.636719 36.585938 L 118.691406 36.585938 L 118.691406 53.675781 Z M 118.691406 26.464844 L 133.199219 26.464844 C 134.78125 26.464844 135.546875 25.703125 135.546875 24.125 L 135.546875 12.476562 C 135.546875 10.898438 134.78125 10.136719 133.199219 10.136719 L 118.691406 10.136719 Z M 118.691406 26.464844 " fill-opacity="1" fill-rule="nonzero"/><g clip-path="url(#891909ef01)"><path fill="#1581ff" d="M 0 86.769531 L 0 72.128906 L 3.65625 72.128906 L 7.800781 80.945312 L 11.945312 72.128906 L 15.601562 72.128906 L 15.601562 86.769531 L 12.546875 86.769531 L 12.546875 77.515625 L 9.109375 84.863281 L 6.546875 84.863281 L 3.109375 77.515625 L 3.109375 86.769531 Z M 21.710938 86.769531 C 19.417969 86.769531 18.273438 85.625 18.273438 83.394531 C 18.273438 81.164062 19.417969 80.019531 21.710938 80.019531 L 24.65625 80.019531 L 24.65625 78.769531 C 24.65625 78.332031 24.4375 78.117188 24 78.117188 L 19.472656 78.117188 L 19.472656 76.539062 L 20.726562 75.558594 L 24.109375 75.558594 C 26.398438 75.558594 27.546875 76.699219 27.546875 78.988281 L 27.546875 86.769531 Z M 21.164062 83.503906 C 21.164062 83.941406 21.382812 84.15625 21.816406 84.15625 L 24.601562 84.15625 L 24.601562 82.199219 L 21.816406 82.199219 C 21.382812 82.199219 21.164062 82.414062 21.164062 82.851562 Z M 30.4375 83.339844 L 30.4375 72.128906 L 33.382812 72.128906 L 33.382812 75.558594 L 37.035156 75.558594 L 37.035156 78.117188 L 33.382812 78.117188 L 33.382812 83.558594 C 33.382812 83.992188 33.601562 84.210938 34.035156 84.210938 L 37.253906 84.210938 L 37.253906 85.789062 L 36 86.769531 L 33.925781 86.769531 C 31.636719 86.769531 30.492188 85.625 30.492188 83.339844 Z M 39.546875 86.769531 L 39.546875 71.039062 L 42.492188 71.039062 L 42.492188 75.558594 L 45.761719 75.558594 C 48.054688 75.558594 49.199219 76.699219 49.199219 78.988281 L 49.199219 86.769531 L 46.253906 86.769531 L 46.253906 78.769531 C 46.253906 78.332031 46.035156 78.117188 45.601562 78.117188 L 42.492188 78.117188 L 42.492188 86.769531 Z M 56.183594 86.171875 L 60.546875 72.074219 L 65.238281 72.074219 L 69.601562 86.171875 L 69.21875 86.769531 L 66.65625 86.769531 L 65.78125 83.777344 L 60.054688 83.777344 L 59.183594 86.769531 L 56.617188 86.769531 Z M 60.816406 81 L 64.910156 81 L 63.054688 74.851562 L 62.726562 74.851562 Z M 71.128906 85.789062 L 71.128906 84.210938 L 76.035156 84.210938 C 76.527344 84.210938 76.746094 83.941406 76.746094 83.394531 C 76.746094 82.851562 76.527344 82.523438 76.144531 82.46875 L 73.855469 82.089844 C 72.054688 81.761719 71.128906 80.726562 71.128906 78.933594 C 71.128906 76.644531 72.273438 75.558594 74.5625 75.558594 L 77.835938 75.558594 L 79.089844 76.539062 L 79.089844 78.117188 L 74.671875 78.117188 C 74.183594 78.117188 73.964844 78.386719 73.964844 78.933594 C 73.964844 79.476562 74.183594 79.804688 74.617188 79.910156 L 76.910156 80.292969 C 78.710938 80.566406 79.636719 81.597656 79.636719 83.394531 C 79.636719 85.679688 78.492188 86.824219 76.144531 86.824219 L 72.382812 86.824219 Z M 81.925781 85.789062 L 81.925781 84.210938 L 86.835938 84.210938 C 87.328125 84.210938 87.546875 83.941406 87.546875 83.394531 C 87.546875 82.851562 87.328125 82.523438 86.945312 82.46875 L 84.65625 82.089844 C 82.855469 81.761719 81.925781 80.726562 81.925781 78.933594 C 81.925781 76.644531 83.074219 75.558594 85.363281 75.558594 L 88.636719 75.558594 L 89.890625 76.539062 L 89.890625 78.117188 L 85.472656 78.117188 C 84.980469 78.117188 84.761719 78.386719 84.761719 78.933594 C 84.761719 79.476562 84.980469 79.804688 85.417969 79.910156 L 87.710938 80.292969 C 89.507812 80.566406 90.4375 81.597656 90.4375 83.394531 C 90.4375 85.679688 89.289062 86.824219 86.945312 86.824219 L 83.183594 86.824219 Z M 93.054688 73.707031 L 93.054688 70.824219 L 96.109375 70.824219 L 96.109375 73.707031 Z M 93.109375 86.769531 L 93.109375 75.558594 L 96.054688 75.558594 L 96.054688 86.769531 Z M 98.726562 85.789062 L 98.726562 84.210938 L 103.636719 84.210938 C 104.128906 84.210938 104.34375 83.941406 104.34375 83.394531 C 104.34375 82.851562 104.128906 82.523438 103.746094 82.46875 L 101.453125 82.089844 C 99.65625 81.761719 98.726562 80.726562 98.726562 78.933594 C 98.726562 76.644531 99.871094 75.558594 102.164062 75.558594 L 105.4375 75.558594 L 106.691406 76.539062 L 106.691406 78.117188 L 102.273438 78.117188 C 101.78125 78.117188 101.5625 78.386719 101.5625 78.933594 C 101.5625 79.476562 101.78125 79.804688 102.21875 79.910156 L 104.507812 80.292969 C 106.308594 80.566406 107.238281 81.597656 107.238281 83.394531 C 107.238281 85.679688 106.089844 86.824219 103.746094 86.824219 L 99.980469 86.824219 Z M 109.800781 83.339844 L 109.800781 72.128906 L 112.746094 72.128906 L 112.746094 75.558594 L 116.398438 75.558594 L 116.398438 78.117188 L 112.746094 78.117188 L 112.746094 83.558594 C 112.746094 83.992188 112.964844 84.210938 113.398438 84.210938 L 116.617188 84.210938 L 116.617188 85.789062 L 115.363281 86.769531 L 113.289062 86.769531 C 111 86.769531 109.855469 85.625 109.855469 83.339844 Z M 121.800781 86.769531 C 119.507812 86.769531 118.363281 85.625 118.363281 83.394531 C 118.363281 81.164062 119.507812 80.019531 121.800781 80.019531 L 124.746094 80.019531 L 124.746094 78.769531 C 124.746094 78.332031 124.527344 78.117188 124.089844 78.117188 L 119.5625 78.117188 L 119.5625 76.539062 L 120.816406 75.558594 L 124.199219 75.558594 C 126.492188 75.558594 127.636719 76.699219 127.636719 78.988281 L 127.636719 86.769531 Z M 121.253906 83.503906 C 121.253906 83.941406 121.472656 84.15625 121.910156 84.15625 L 124.691406 84.15625 L 124.691406 82.199219 L 121.910156 82.199219 C 121.472656 82.199219 121.253906 82.414062 121.253906 82.851562 Z M 130.636719 86.769531 L 130.636719 75.558594 L 136.855469 75.558594 C 139.144531 75.558594 140.289062 76.699219 140.289062 78.988281 L 140.289062 86.769531 L 137.34375 86.769531 L 137.34375 78.769531 C 137.34375 78.332031 137.128906 78.117188 136.691406 78.117188 L 133.582031 78.117188 L 133.582031 86.769531 Z M 143.183594 83.339844 L 143.183594 72.128906 L 146.128906 72.128906 L 146.128906 75.558594 L 149.78125 75.558594 L 149.78125 78.117188 L 146.128906 78.117188 L 146.128906 83.558594 C 146.128906 83.992188 146.34375 84.210938 146.78125 84.210938 L 150 84.210938 L 150 85.789062 L 148.746094 86.769531 L 146.671875 86.769531 C 144.382812 86.769531 143.238281 85.625 143.238281 83.339844 Z M 143.183594 83.339844 " fill-opacity="1" fill-rule="nonzero"/></g></svg>